<?xml version="1.0" encoding="UTF-8" standalone="no"?>
<svg width="50px" height="50px" viewBox="0 0 50 50" version="1.1" xmlns="http://www.w3.org/2000/svg" xmlns:xlink="http://www.w3.org/1999/xlink">
    <!-- Generator: Sketch 3.8.1 (29687) - http://www.bohemiancoding.com/sketch -->
    <title>particle4</title>
    <desc>Created with Sketch.</desc>
    <defs></defs>
    <g id="Page-1" stroke="none" stroke-width="1" fill="none" fill-rule="evenodd">
        <g id="particle4" fill="#ffffff">
            <path d="M18.000121,26.1312973 C18.0691594,27.5683589 17.9369837,28.0312292 18.4784326,29.0011669 C19.0330584,29.9947096 19.7703716,31.5607316 21.3483022,31.8710366 C21.7853543,31.9569843 24.2352139,32.8276598 24.6964835,32.8276598 C25.871929,32.8276598 27.7169516,32.4016315 28.5229767,31.8710366 C29.8017517,31.0292371 30.7519554,29.736906 31.3928463,28.0445437 C31.7097573,27.2076957 31.8711576,26.3667177 31.8711576,25.4138299 C31.8711576,24.4862624 32.1610531,23.0355727 31.8711576,22.3048045 C31.2616013,20.7682359 29.6162196,20.2675228 28.0446647,19.4349348 C27.0643599,18.9155829 25.8738424,18 24.6964835,18 C23.2107242,18 22.543451,18.7953422 21.8266137,19.4349348 C21.0887359,20.0933007 19.8392206,20.134953 19.4350558,21.3481812 C19.1847047,22.0996892 18.4784326,23.2391384 18.4784326,24.2180509 C18.4784326,24.4350814 17.9912022,25.9456499 18.000121,26.1312973 Z" id="Oval-3"></path>
        </g>
    </g>
</svg>